<?xml version="1.0" encoding="utf-8"?>
<!-- Generator: Adobe Illustrator 22.0.1, SVG Export Plug-In . SVG Version: 6.00 Build 0)  -->
<svg version="1.1" id="Layer_1" xmlns="http://www.w3.org/2000/svg" xmlns:xlink="http://www.w3.org/1999/xlink" x="0px" y="0px"
	 viewBox="0 0 127 52" style="enable-background:new 0 0 127 52;" xml:space="preserve">
<style type="text/css">
	.st0{fill:#262626;}
</style>
<path class="st0" d="M123.1,35.8c-0.6,0.6-1.4,1.2-2.3,1.9s-1.9,1.3-2.9,1.9c-1,0.6-2.1,1.1-3.2,1.4c-1.1,0.4-2.1,0.6-3.1,0.6
	c-0.3,0-0.6,0-0.9-0.1s-0.5-0.2-0.8-0.3c-0.2-0.2-0.5-0.4-0.7-0.7s-0.5-0.6-0.7-1.1c1.4-0.4,2.7-0.9,4-1.6c1.2-0.7,2.3-1.5,3.1-2.3
	s1.7-1.9,2.3-3.2c0.7-1.2,1-2.3,1-3.3c0-0.9-0.2-1.8-0.5-2.5s-0.8-1.4-1.4-1.9s-1.3-0.9-2-1.2c-0.8-0.3-1.6-0.4-2.5-0.4
	c-1.1,0-2.1,0.2-3,0.6s-1.7,0.9-2.5,1.6c-0.7,0.7-1.4,1.4-1.9,2.3s-1,1.8-1.4,2.8s-0.7,2.1-1.1,3.3s-0.5,2.3-0.5,3.2
	c0,0.2,0,0.5,0,0.7c-0.1,0.1-0.3,0.2-0.4,0.3c-0.9,0.7-1.9,1.3-2.9,1.9c-1,0.6-2.1,1.1-3.2,1.4c-1.1,0.4-2.1,0.6-3.1,0.6
	c-0.3,0-0.6,0-0.9-0.1s-0.5-0.2-0.8-0.3c-0.2-0.2-0.5-0.4-0.7-0.7s-0.5-0.6-0.7-1.1c1.4-0.4,2.7-0.9,4-1.6c1.2-0.7,2.3-1.5,3.1-2.3
	s1.7-1.9,2.3-3.2c0.7-1.2,1-2.3,1-3.3c0-0.9-0.2-1.8-0.5-2.5s-0.8-1.4-1.4-1.9s-1.3-0.9-2-1.2c-0.8-0.3-1.6-0.4-2.5-0.4
	c-1.1,0-2.1,0.2-3,0.6s-1.7,0.9-2.5,1.6c-0.7,0.7-1.4,1.4-1.9,2.3s-1,1.8-1.4,2.8s-0.7,2.1-1.1,3.3S83,36,83,36.9
	c0,0.6,0,1.1,0.1,1.7c-0.1,0.1-0.1,0.1-0.2,0.2c-0.4,0.4-0.8,0.7-1.2,1c-0.4,0.3-0.9,0.6-1.3,0.9s-0.9,0.5-1.3,0.6
	c-0.4,0.2-0.9,0.2-1.2,0.2c-0.3,0-0.6-0.2-0.8-0.6c-0.2-0.4-0.3-0.9-0.3-1.6c0-1.2,0.2-2.4,0.5-3.5s0.9-2.4,1.7-4
	c0.9-1.5,1.4-2.8,1.8-3.9c0.3-1.1,0.5-2.2,0.5-3.3c0-0.6-0.1-1-0.2-1.4s-0.3-0.6-0.5-0.8s-0.5-0.3-0.7-0.4s-0.5-0.1-0.7-0.1
	c-0.8,0-1.6,0.3-2.5,0.9s-2,1.6-3.4,2.9c-1.4,1.4-2.5,2.5-3.3,3.6s-1.6,2-2.2,2.9l-0.5-0.3c0.6-1,1.2-2.2,1.9-3.6s1.5-2.8,2.2-4.4
	c0.7-1.5,1.5-3.1,2.2-4.8c0.7-1.6,1.4-3.3,1.9-4.8c0.6-1.6,1-3.1,1.4-4.6s0.5-2.8,0.5-4c0-0.8-0.1-1.6-0.2-2.2
	c-0.1-0.7-0.4-1.2-0.7-1.7S75.7,1,75.2,0.7c-0.6-0.3-1.3-0.4-2.2-0.4c-1.7,0-3.2,0.5-4.5,1.4C67.1,2.6,66,3.8,65,5.5
	c-1,1.6-1.8,3.5-2.5,5.6s-1.2,4.3-1.5,6.7s-0.7,4.7-1,7c-0.3,2.4-0.6,4.6-0.7,6.8c-0.1,2.2-0.2,4.2-0.2,6c0,0.4,0,0.8,0,1.2
	c-0.3,0.3-0.6,0.6-0.9,0.9c-0.4,0.3-0.8,0.7-1.1,0.9c-0.4,0.3-0.8,0.5-1.1,0.7c-0.4,0.2-0.7,0.3-1.1,0.3c-0.5,0-0.8-0.2-0.9-0.6
	c-0.1-0.4-0.2-1-0.2-1.7c0-0.9,0.1-1.9,0.4-3.2c0.3-1.3,0.5-2.4,0.7-3.4s0.4-2,0.6-2.9c0.2-0.9,0.2-1.8,0.2-2.6c0-0.5,0-0.9-0.1-1.2
	c-0.1-0.3-0.2-0.5-0.4-0.7S54.8,25,54.6,25c-0.2,0-0.4-0.1-0.7-0.1c-0.2,0-0.4,0-0.6,0c-0.2,0-0.4,0-0.6,0c-0.2,0-0.4,0-0.6,0
	c-0.2,0-0.4-0.1-0.6-0.2c-0.2-0.1-0.4-0.2-0.5-0.4c-0.1-0.2-0.3-0.4-0.4-0.6c-0.1-0.2-0.3-0.4-0.5-0.5S49.6,23,49.2,23
	c-1.1,0-2.2,0.2-3.3,0.7s-2.1,1.1-3.1,1.9s-1.9,1.8-2.7,2.8c-0.8,1.1-1.6,2.4-2.3,3.9c-0.7,1.5-1.3,2.9-1.6,4.2c0,0.1,0,0.2-0.1,0.3
	c-0.9,0.6-1.7,1.2-2.6,1.8c-1.3,0.9-2.5,1.8-3.8,2.7s-2.6,1.7-3.9,2.5c-1.4,0.7-2.8,1.3-4.3,1.8s-3.1,0.7-4.8,0.7
	c-1.4,0-2.6-0.2-3.7-0.6c-1.1-0.4-2-1.1-2.8-1.9c-0.8-0.9-1.4-1.9-1.8-3.2c-0.4-1.3-0.6-2.8-0.6-4.5c0-1.2,0.1-2.5,0.4-3.9
	c0.2-1.4,0.6-2.9,1-4.3c0.4-1.5,1-3,1.6-4.5s1.3-2.9,2.1-4.3s1.6-2.7,2.6-3.9c0.9-1.2,1.9-2.3,2.9-3.2s2.1-1.6,3.2-2.1
	c1.1-0.5,2.3-0.8,3.4-0.8c1,0,1.8,0.2,2.5,0.5s1.3,0.7,1.7,1.2c0.4,0.5,0.8,1.1,1,1.7c0.2,0.7,0.3,1.4,0.3,2.1
	c0,1.4-0.3,2.6-0.8,3.8c-0.5,1.1-1.2,2.1-2.1,3s-1.8,1.5-2.9,1.9c-1.1,0.5-2.1,0.7-3.2,0.7c-0.4,0-0.7,0-1-0.1s-0.5-0.1-0.6-0.2
	c-0.2-0.1-0.3-0.1-0.5-0.2c-0.1-0.1-0.3-0.1-0.5-0.1c-0.3,0-0.6,0.1-0.8,0.2c-0.2,0.2-0.3,0.4-0.4,0.6c-0.1,0.3-0.2,0.5-0.2,0.9
	c0,0.3,0,0.6,0,0.9c0,0.2,0,0.4,0,0.6s0,0.3,0,0.5c0,0.7,0.4,1.3,1.1,1.7c0.7,0.4,1.8,0.6,3.3,0.6c1.1,0,2.2-0.2,3.4-0.6
	c1.1-0.4,2.2-1,3.2-1.7s2-1.6,2.9-2.6c0.9-1,1.7-2.1,2.4-3.2s1.2-2.3,1.6-3.5c0.4-1.2,0.6-2.4,0.6-3.6c0-1.8-0.3-3.3-0.9-4.7
	s-1.4-2.4-2.4-3.3s-2-1.5-3.2-1.9s-2.4-0.6-3.6-0.6c-1.8,0-3.5,0.3-5.2,0.9C19,5.2,17.4,6,15.9,7s-2.9,2.3-4.3,3.7
	c-1.3,1.4-2.6,2.9-3.7,4.6c-1.1,1.6-2.1,3.4-3,5.1S3.3,24,2.7,25.8S1.6,29,1.2,30.7c-0.3,1.7-0.5,3.3-0.5,4.9c0,2.2,0.3,4.2,1,6.2
	s1.6,3.7,2.9,5.2s2.8,2.7,4.5,3.5c1.8,0.9,3.7,1.3,5.9,1.3c2,0,3.8-0.1,5.4-0.4c1.6-0.3,3.1-0.6,4.5-1.1s2.6-1,3.7-1.6
	s2.2-1.2,3.1-1.9c1-0.7,1.8-1.4,2.7-2.1c0.6-0.5,1.1-1,1.6-1.5c0.3,0.8,0.8,1.5,1.3,2.1c0.6,0.6,1.2,1.1,2,1.4
	c0.7,0.3,1.5,0.5,2.3,0.5c0.7,0,1.5-0.1,2.2-0.4c0.7-0.2,1.4-0.6,2.1-0.9c0.7-0.4,1.3-0.8,1.9-1.3c0.6-0.5,1.1-0.9,1.5-1.4
	c0.5,1.3,1.1,2.3,1.9,3c0.7,0.7,1.6,1,2.7,1c0.9,0,1.8-0.2,2.7-0.7s1.7-1,2.5-1.6l0,0c0,0.2,0.1,0.4,0.2,0.6
	c0.2,0.5,0.4,0.9,0.7,1.2s0.7,0.4,1.3,0.4c0.4,0,0.7-0.1,1-0.3s0.5-0.4,0.7-0.7s0.4-0.8,0.7-1.3c0.2-0.5,0.5-1.2,0.9-1.9
	c0.7-1.5,1.5-2.9,2.4-4.3c0.9-1.4,1.7-2.6,2.6-3.7c0.8-1.1,1.6-2,2.2-2.7s1.1-1.2,1.4-1.4l0.5,0.1c-0.1,0-0.2,0.2-0.3,0.5
	c-0.2,0.3-0.4,0.7-0.6,1.2s-0.5,1.1-0.7,1.7c-0.3,0.6-0.5,1.3-0.7,1.9c-0.2,0.7-0.4,1.3-0.5,2c-0.1,0.6-0.2,1.2-0.2,1.8
	c0,0.7,0.1,1.5,0.3,2.4s0.5,1.6,1,2.3c0.4,0.7,1,1.3,1.7,1.7c0.7,0.5,1.5,0.7,2.4,0.7c0.6,0,1.2-0.1,1.8-0.3s1.3-0.4,1.9-0.7
	s1.3-0.6,1.9-1s1.2-0.7,1.8-1.1c0.5-0.3,0.9-0.6,1.3-0.9c0.2,0.3,0.4,0.6,0.6,0.8c0.8,1,1.7,1.7,2.8,2.3s2.5,0.8,4,0.8
	c1,0,1.9-0.1,2.9-0.3s1.9-0.5,2.8-0.9s1.7-0.8,2.5-1.3s1.6-1,2.3-1.5c0.3-0.2,0.5-0.4,0.8-0.6c0.3,0.5,0.6,1,1,1.5
	c0.8,1,1.7,1.7,2.8,2.3s2.5,0.8,4,0.8c1,0,1.9-0.1,2.9-0.3s1.9-0.5,2.8-0.9s1.7-0.8,2.5-1.3s1.6-1,2.3-1.5c1.6-1.2,3.1-2.5,4.6-4
	L123.1,35.8z M48,35.5c-0.1,0.5-0.2,1.2-0.4,2s-0.5,1.5-0.9,2.3c-0.4,0.7-0.8,1.4-1.3,1.9s-1,0.8-1.6,0.8c-0.4,0-0.7-0.1-0.9-0.3
	s-0.4-0.4-0.6-0.8c-0.1-0.3-0.2-0.7-0.3-1.1s-0.1-0.8-0.1-1.2c0-0.7,0.1-1.5,0.3-2.3s0.5-1.7,1-2.8s0.9-2,1.4-2.7s1-1.4,1.6-1.9
	c0.6-0.6,1.2-1,1.8-1.3s1.3-0.5,2-0.5L48,35.5z M65.8,26.4c-0.5,1.2-1,2.3-1.4,3.3c0.2-1.9,0.5-3.7,0.8-5.7c0.1-0.8,0.2-1.7,0.4-2.6
	c0.1-0.9,0.3-1.9,0.4-2.8c0.1-1,0.3-1.9,0.6-2.9c0.2-1,0.5-1.9,0.8-2.8c1.1-2.6,2.1-4.6,2.9-6s1.5-2.1,1.9-2.1
	c0.3,0,0.5,0.6,0.5,1.9c0,0.8-0.2,2.1-0.6,3.8S71,14.3,70,16.8c-0.3,0.7-0.7,1.6-1.1,2.7s-0.9,2.2-1.4,3.3
	C66.8,24,66.3,25.2,65.8,26.4z M89,34.2c0-0.5,0.2-1.1,0.5-1.9s0.5-1.4,0.7-1.9s0.5-1,0.8-1.4s0.8-0.7,1.3-1s1.1-0.4,1.8-0.4
	c0.4,0,0.7,0.2,1,0.7s0.4,1.1,0.4,1.8c0,0.5-0.3,1.2-0.9,1.9c-0.6,0.8-1.2,1.4-1.8,1.9c-0.6,0.5-1.2,0.8-1.9,1.1s-1.3,0.4-1.9,0.4
	C89,35.1,89,34.7,89,34.2z M108.1,34.2c0-0.5,0.2-1.1,0.5-1.9s0.5-1.4,0.7-1.9s0.5-1,0.8-1.4s0.8-0.7,1.3-1s1.1-0.4,1.8-0.4
	c0.4,0,0.7,0.2,1,0.7s0.4,1.1,0.4,1.8c0,0.5-0.3,1.2-0.9,1.9c-0.6,0.8-1.2,1.4-1.8,1.9c-0.6,0.5-1.2,0.8-1.9,1.1s-1.3,0.4-1.9,0.4
	C108,35.1,108,34.7,108.1,34.2z"/>
</svg>
